<?xml version="1.0" encoding="UTF-8" standalone="no" ?>
<!DOCTYPE svg PUBLIC "-//W3C//DTD SVG 1.1//EN" "http://www.w3.org/Graphics/SVG/1.1/DTD/svg11.dtd">
<svg xmlns="http://www.w3.org/2000/svg" xmlns:xlink="http://www.w3.org/1999/xlink" version="1.1" width="500" height="500" viewBox="0 0 500 500" xml:space="preserve">
<desc>Created with Fabric.js 4.6.0</desc>
<defs>
</defs>
<g transform="matrix(5.31 0 0 5.31 249.75 234.76)" style="" id="dHyYqxy-0-8q4l61d3eB3"  >
<linearGradient id="SVGID_258" gradientUnits="userSpaceOnUse" gradientTransform="matrix(1 0 0 1 -75 -11.3)"  x1="6.577387688317074" y1="9.458331447271222" x2="150" y2="11.299999999999999">
<stop offset="0%" style="stop-color:#FFFFFF;stop-opacity: 1"/>
<stop offset="48.596823959825684%" style="stop-color:#6A11CB;stop-opacity: 1"/>
<stop offset="54.56032213056648%" style="stop-color:#2575FC;stop-opacity: 1"/>
<stop offset="100%" style="stop-color:#000000;stop-opacity: 1"/>
</linearGradient>
		<text xml:space="preserve" font-family="Vast Shadow" font-size="20" font-style="normal" font-weight="normal" letter-spacing="0.38" line-height="1.16" style="stroke: none; stroke-width: 1; stroke-dasharray: none; stroke-linecap: butt; stroke-dashoffset: 0; stroke-linejoin: miter; stroke-miterlimit: 4; fill: url(#SVGID_258); fill-rule: nonzero; opacity: 1; white-space: pre;" ><tspan x="-29.87" y="6.28" >1</tspan><tspan x="-18.59" y="6.28" >9</tspan><tspan x="-1.84" y="6.28" >9</tspan><tspan x="14.92" y="6.28" >7</tspan></text>
</g>
<g transform="matrix(5.32 0 0 5.32 250.33 157.93)" style="" id="UBjLxLiSc_77Pyz32IzSW"  >
<linearGradient id="SVGID_260" gradientUnits="userSpaceOnUse" gradientTransform="matrix(1 0 0 1 -75 -2.82)"  x1="6.577387688317074" y1="9.458331447271222" x2="150" y2="11.299999999999999">
<stop offset="0%" style="stop-color:#FFFFFF;stop-opacity: 1"/>
<stop offset="48.596823959825684%" style="stop-color:#6A11CB;stop-opacity: 1"/>
<stop offset="54.56032213056648%" style="stop-color:#2575FC;stop-opacity: 1"/>
<stop offset="100%" style="stop-color:#000000;stop-opacity: 1"/>
</linearGradient>
		<text xml:space="preserve" font-family="Vast Shadow" font-size="5" font-style="normal" font-weight="normal" letter-spacing="0.095" line-height="1.16" style="stroke: none; stroke-width: 1; stroke-dasharray: none; stroke-linecap: butt; stroke-dashoffset: 0; stroke-linejoin: miter; stroke-miterlimit: 4; fill: url(#SVGID_260); fill-rule: nonzero; opacity: 1; white-space: pre;" ><tspan x="-20.96" y="1.57" >E</tspan><tspan x="-16.13" y="1.57" >s</tspan><tspan x="-12.26" y="1.57" >t</tspan><tspan x="-9.18" y="1.57" >a</tspan><tspan x="-4.71" y="1.57" >b</tspan><tspan x="-0.33" y="1.57" >l</tspan><tspan x="2.1" y="1.57" >i</tspan><tspan x="4.51" y="1.57" >s</tspan><tspan x="8.39" y="1.57" >h</tspan><tspan x="12.92" y="1.57" >e</tspan><tspan x="16.83" y="1.57" >d</tspan></text>
</g>
<g transform="matrix(0.96 0 0 0.96 249.75 96.15)" id="yS48_qxDm6RGAbe0XIn98"  >
<filter id="SVGID_267" y="-20%" height="140%" x="-21%" width="142%" >
	<feGaussianBlur in="SourceAlpha" stdDeviation="0"></feGaussianBlur>
	<feOffset dx="1" dy="0" result="oBlur" ></feOffset>
	<feFlood flood-color="rgb(0,0,0)" flood-opacity="1"/>
	<feComposite in2="oBlur" operator="in" />
	<feMerge>
		<feMergeNode></feMergeNode>
		<feMergeNode in="SourceGraphic"></feMergeNode>
	</feMerge>
</filter>
<path style="stroke: rgb(106,17,203); stroke-opacity: 0.6; stroke-width: 1; stroke-dasharray: none; stroke-linecap: butt; stroke-dashoffset: 0; stroke-linejoin: miter; stroke-miterlimit: 4; fill: rgb(179,181,179); fill-rule: nonzero; opacity: 1;filter: url(#SVGID_267);" vector-effect="non-scaling-stroke"  transform=" translate(0, 0)" d="M -25.2 16.3 L -24.9 16.7 C -24.7 17 -24.799999999999997 17.3 -25.099999999999998 17.5 L -29.599999999999998 20.4 C -29.9 20.599999999999998 -30.2 20.5 -30.4 20.2 L -30.7 19.8 C -30.9 19.5 -30.8 19.2 -30.5 19 L -26 16.1 C -25.7 16 -25.3 16.1 -25.2 16.3 z M -15.6 -26.3 L -18.4 -30.8 C -18.599999999999998 -31.1 -18.9 -31.1 -19.2 -31 L -19.599999999999998 -30.8 C -19.9 -30.6 -19.9 -30.3 -19.799999999999997 -30 L -16.999999999999996 -25.5 C -16.799999999999997 -25.2 -16.499999999999996 -25.2 -16.199999999999996 -25.3 L -15.799999999999995 -25.5 C -15.499999999999995 -25.7 -15.399999999999995 -26 -15.599999999999996 -26.3 z M -17 32.2 L -16.6 32.400000000000006 C -16.3 32.50000000000001 -16 32.400000000000006 -15.8 32.2 L -13.3 27.500000000000004 C -13.200000000000001 27.200000000000003 -13.3 26.900000000000002 -13.5 26.700000000000003 L -14 26.500000000000004 C -14.3 26.400000000000002 -14.6 26.500000000000004 -14.8 26.700000000000003 L -17.3 31.400000000000002 C -17.400000000000002 31.700000000000003 -17.3 32.1 -17 32.2 z M -26.7 -14.9 L -31.4 -17.4 C -31.7 -17.5 -32 -17.4 -32.199999999999996 -17.2 L -32.4 -16.8 C -32.5 -16.5 -32.4 -16.2 -32.199999999999996 -16 L -27.499999999999996 -13.5 C -27.199999999999996 -13.4 -26.899999999999995 -13.5 -26.699999999999996 -13.7 L -26.499999999999996 -14.1 C -26.299999999999997 -14.4 -26.399999999999995 -14.7 -26.699999999999996 -14.9 z M -27.6 -0.8 L -35.900000000000006 -0.8 C -36.2 -0.8 -36.50000000000001 -0.6000000000000001 -36.50000000000001 -0.20000000000000007 L -36.50000000000001 0.29999999999999993 C -36.50000000000001 0.5999999999999999 -36.300000000000004 0.8999999999999999 -35.900000000000006 0.8999999999999999 L -27.600000000000005 0.8999999999999999 C -27.300000000000004 0.8999999999999999 -27.000000000000004 0.7 -27.000000000000004 0.29999999999999993 L -27.000000000000004 -0.20000000000000007 C -27.000000000000004 -0.5 -27.300000000000004 -0.8 -27.600000000000005 -0.8 z M 0.2 -36.4 L -0.3 -36.4 C -0.6 -36.4 -0.8999999999999999 -36.199999999999996 -0.8999999999999999 -35.8 L -0.8999999999999999 -27.499999999999996 C -0.8999999999999999 -27.199999999999996 -0.7 -26.899999999999995 -0.29999999999999993 -26.899999999999995 L 0.20000000000000007 -26.899999999999995 C 0.5 -26.899999999999995 0.8 -27.099999999999994 0.8 -27.499999999999996 L 0.8 -35.9 C 0.8 -36.199999999999996 0.5 -36.4 0.20000000000000007 -36.4 z M -0.2 36.4 L 0.3 36.4 C 0.6 36.4 0.8999999999999999 36.199999999999996 0.8999999999999999 35.8 L 0.8999999999999999 27.099999999999998 C 0.8999999999999999 26.799999999999997 0.7 26.499999999999996 0.29999999999999993 26.499999999999996 L -0.20000000000000007 26.499999999999996 C -0.5 26.499999999999996 -0.8 26.699999999999996 -0.8 27.099999999999998 L -0.8 35.8 C -0.8 36.199999999999996 -0.5 36.4 -0.20000000000000007 36.4 z M 25.9 -16.2 L 30.4 -19.099999999999998 C 30.7 -19.299999999999997 30.7 -19.599999999999998 30.599999999999998 -19.9 L 30.299999999999997 -20.299999999999997 C 30.099999999999998 -20.599999999999998 29.799999999999997 -20.599999999999998 29.499999999999996 -20.499999999999996 L 24.999999999999996 -17.599999999999998 C 24.699999999999996 -17.4 24.699999999999996 -17.099999999999998 24.799999999999997 -16.799999999999997 L 25.099999999999998 -16.4 C 25.299999999999997 -16.099999999999998 25.7 -15.999999999999998 25.9 -16.2 z M 26.7 14.9 L 31.4 17.4 C 31.7 17.5 32 17.4 32.199999999999996 17.2 L 32.4 16.8 C 32.5 16.5 32.4 16.2 32.199999999999996 16 L 27.499999999999996 13.5 C 27.199999999999996 13.4 26.899999999999995 13.5 26.699999999999996 13.7 L 26.499999999999996 14.1 C 26.299999999999997 14.4 26.399999999999995 14.7 26.699999999999996 14.9 z M 27.1 0.8 L 35.900000000000006 0.8 C 36.2 0.8 36.50000000000001 0.6000000000000001 36.50000000000001 0.20000000000000007 L 36.50000000000001 -0.29999999999999993 C 36.50000000000001 -0.5999999999999999 36.300000000000004 -0.8999999999999999 35.900000000000006 -0.8999999999999999 L 27.100000000000005 -0.8999999999999999 C 26.800000000000004 -0.8999999999999999 26.500000000000004 -0.7 26.500000000000004 -0.29999999999999993 L 26.500000000000004 0.20000000000000007 C 26.600000000000005 0.5 26.800000000000004 0.8 27.100000000000005 0.8 z M 15.6 26.3 L 18.4 30.8 C 18.599999999999998 31.1 18.9 31.1 19.2 31 L 19.599999999999998 30.8 C 19.9 30.6 19.9 30.3 19.799999999999997 30 L 16.999999999999996 25.5 C 16.799999999999997 25.2 16.499999999999996 25.2 16.199999999999996 25.3 L 15.799999999999995 25.5 C 15.499999999999995 25.7 15.399999999999995 26 15.599999999999996 26.3 z M 15.9 -32.2 L 13.4 -27.500000000000004 C 13.3 -27.200000000000003 13.4 -26.900000000000002 13.6 -26.700000000000003 L 14 -26.500000000000004 C 14.3 -26.400000000000002 14.6 -26.500000000000004 14.8 -26.700000000000003 L 17.3 -31.400000000000002 C 17.400000000000002 -31.700000000000003 17.3 -32 17.1 -32.2 L 16.700000000000003 -32.400000000000006 C 16.300000000000004 -32.60000000000001 16.000000000000004 -32.50000000000001 15.900000000000002 -32.2 z M 0.8 -0.8 L 0.8 -21.3 C 0.8 -21.6 0.6000000000000001 -21.900000000000002 0.20000000000000007 -21.900000000000002 L -0.29999999999999993 -21.900000000000002 C -0.5999999999999999 -21.900000000000002 -0.8999999999999999 -21.700000000000003 -0.8999999999999999 -21.3 L -0.8999999999999999 -0.40000000000000213 C -0.8999999999999999 0.2999999999999978 -0.29999999999999993 0.8999999999999979 0.40000000000000013 0.8999999999999979 L 11.8 0.8999999999999979 C 12.100000000000001 0.8999999999999979 12.4 0.699999999999998 12.4 0.29999999999999793 L 12.4 -0.20000000000000207 C 12.4 -0.500000000000002 12.200000000000001 -0.800000000000002 11.8 -0.800000000000002 z" stroke-linecap="round" />
</g>
<g transform="matrix(0.96 0 0 0.96 249.75 96.15)" id="N05GOjPMI2KArZbCdCwpe"  >
<path style="stroke: rgb(106,17,203); stroke-opacity: 0.6; stroke-width: 1; stroke-dasharray: none; stroke-linecap: butt; stroke-dashoffset: 0; stroke-linejoin: miter; stroke-miterlimit: 4; fill: rgb(179,181,179); fill-rule: nonzero; opacity: 1;" vector-effect="non-scaling-stroke"  transform=" translate(-40, -40)" d="M 40 0 C 17.9 0 0 17.9 0 40 C 0 62.1 17.9 80 40 80 C 62.1 80 80 62.1 80 40 C 80 17.9 62.1 0 40 0 z M 40 78.4 C 18.8 78.4 1.6 61.2 1.6 40 C 1.6 18.799999999999997 18.8 1.6 40 1.6 C 61.2 1.6 78.4 18.8 78.4 40 C 78.4 61.2 61.2 78.4 40 78.4 z" stroke-linecap="round" />
</g>
</svg>